<svg width="307" height="106" viewBox="0 0 307 106" fill="none" xmlns="http://www.w3.org/2000/svg">
<path d="M65.88 28.424L71.2 1.824H89.478L88.034 8.93H78.42L77.47 13.832H85.83L84.424 20.672H76.216L74.658 28.424H65.88Z" fill="white"/>
<path d="M98.4632 28.956C91.3192 28.956 86.9872 24.32 88.2792 17.974C89.4192 12.236 94.5492 8.55 101.161 8.55C108.989 8.55 113.207 13.946 111.117 20.634H95.4992C95.4992 22.42 96.7532 23.522 98.8432 23.522C100.249 23.522 101.541 22.99 102.453 22.002H110.661C108.495 26.296 103.859 28.956 98.4632 28.956ZM96.2212 16.834H104.125C104.125 15.048 102.909 13.946 100.819 13.946C98.6912 13.946 96.9432 15.086 96.2212 16.834Z" fill="white"/>
<path d="M125.316 28.424C116.614 29.108 113.232 26.372 114.562 19.798L118.134 1.824H126.418L123.112 18.392C122.656 20.786 123.34 21.47 126.76 21.166L125.316 28.424Z" fill="white"/>
<path d="M128.59 28.424L132.428 9.044H140.75L136.874 28.424H128.59ZM132.542 6.612L134.024 0H142.764L141.358 6.612H132.542Z" fill="white"/>
<path d="M142.157 21.47C146.299 18.24 148.921 16.948 155.609 14.63L154.849 12.54C150.061 14.554 147.553 15.238 143.867 15.39L145.159 9.044H163.703L162.297 15.998C158.155 19.228 155.533 20.52 148.845 22.838L149.605 24.928C154.811 22.724 157.319 22.116 161.727 22.04L160.435 28.424H140.751L142.157 21.47Z" fill="white"/>
<path d="M172.681 28.424L178.001 1.824H189.971C198.559 1.824 203.385 7.714 201.713 16.112C200.155 23.94 194.075 28.424 184.955 28.424H172.681ZM182.903 20.9H185.639C189.591 20.9 192.251 18.772 193.011 15.124C193.771 11.438 191.947 9.348 188.033 9.348H185.221L182.903 20.9Z" fill="white"/>
<path d="M202.883 28.424L206.721 9.044H215.043L211.167 28.424H202.883ZM206.835 6.612L208.317 0H217.057L215.651 6.612H206.835Z" fill="white"/>
<path d="M222.112 28.918C217.59 28.918 214.968 26.296 215.728 22.42C216.298 19.342 218.768 17.594 222.986 17.252L228.876 16.72C230.472 16.606 231.27 16.112 231.422 15.238C231.612 14.25 230.852 13.68 229.294 13.68C227.66 13.68 226.444 14.364 225.836 15.618H217.894C219.566 11.02 223.746 8.55 229.75 8.55C236.666 8.55 240.01 11.78 238.908 17.29L238.224 20.634C237.92 22.04 238.3 22.496 240.314 22.344L239.098 28.424C233.588 29.146 231.688 27.626 233.664 24.054L231.764 23.218C229.636 26.904 226.14 28.918 222.112 28.918ZM225.494 23.864C228.23 23.864 230.472 22.23 232.03 19.076L230.168 18.164C229.294 19.608 228.458 20.14 227.052 20.406L225.722 20.634C224.354 20.862 223.67 21.356 223.518 22.23C223.29 23.332 223.974 23.864 225.494 23.864Z" fill="white"/>
<path d="M141.924 55.424C142.304 54.464 142.724 53.844 143.444 53.104L142.524 52.404C140.984 54.644 139.504 55.624 137.724 55.624C135.044 55.624 133.524 53.244 134.164 49.964C134.764 46.984 136.864 45.024 139.404 45.024C141.204 45.024 142.444 46.044 143.224 48.184L144.264 47.804C143.444 45.664 143.384 44.764 144.124 41.424H148.504L145.704 55.424H141.924ZM139.944 52.324C141.164 52.324 142.184 51.484 142.424 50.284C142.664 49.124 142.024 48.324 140.844 48.324C139.624 48.324 138.604 49.164 138.364 50.364C138.124 51.524 138.744 52.324 139.944 52.324Z" fill="white"/>
<path d="M154.197 55.704C150.277 55.704 147.937 53.244 148.617 49.884C149.217 46.904 151.957 44.964 155.517 44.964C159.417 44.964 161.757 47.404 161.097 50.764C160.497 53.744 157.757 55.704 154.197 55.704ZM154.437 52.324C155.637 52.324 156.637 51.484 156.877 50.324C157.117 49.144 156.457 48.324 155.257 48.324C154.057 48.324 153.057 49.164 152.817 50.324C152.597 51.504 153.257 52.324 154.437 52.324Z" fill="white"/>
<path d="M167.001 55.704C163.421 55.704 161.861 54.304 162.221 52.064H166.202C166.062 52.704 166.381 53.084 167.141 53.084C167.821 53.084 168.221 52.804 168.301 52.404C168.621 50.684 162.322 51.984 163.122 48.024C163.562 45.844 165.581 44.964 168.361 44.964C171.781 44.964 173.201 46.284 172.921 48.544H169.061C169.181 47.904 168.861 47.564 168.141 47.564C167.501 47.564 167.141 47.804 167.081 48.184C166.741 49.864 173.222 48.964 172.462 52.724C172.062 54.664 170.141 55.704 167.001 55.704Z" fill="white"/>
<path d="M11.04 104.424H0L6.72 70.824H17.376C21.84 80.616 23.472 84.888 25.296 92.184L27.84 91.416C26.208 82.008 26.16 78.696 27.744 70.824H38.736L32.016 104.424H21.408C16.896 94.632 15.264 90.36 13.44 83.064L10.896 83.832C12.528 93.24 12.624 96.552 11.04 104.424Z" fill="white"/>
<path d="M46.1265 105.048C40.4145 105.048 37.1025 101.736 38.0625 96.84C38.7825 92.952 41.9025 90.744 47.2305 90.312L54.6705 89.64C56.6865 89.496 57.6945 88.872 57.8865 87.768C58.1265 86.52 57.1665 85.8 55.1985 85.8C53.1345 85.8 51.5985 86.664 50.8305 88.248H40.7985C42.9105 82.44 48.1905 79.32 55.7745 79.32C64.5105 79.32 68.7345 83.4 67.3425 90.36L66.4785 94.584C66.0945 96.36 66.5745 96.936 69.1185 96.744L67.5825 104.424C60.6225 105.336 58.2225 103.416 60.7185 98.904L58.3185 97.848C55.6305 102.504 51.2145 105.048 46.1265 105.048ZM50.3985 98.664C53.8545 98.664 56.6865 96.6 58.6545 92.616L56.3025 91.464C55.1985 93.288 54.1425 93.96 52.3665 94.296L50.6865 94.584C48.9585 94.872 48.0945 95.496 47.9025 96.6C47.6145 97.992 48.4785 98.664 50.3985 98.664Z" fill="white"/>
<path d="M71.76 104.424L76.608 79.944H86.688C85.92 81.864 85.104 83.208 83.232 85.368L85.632 86.952C89.376 81.48 92.016 79.464 95.472 79.464C99.36 79.464 101.472 82.008 101.376 86.376H103.728C105.216 81.912 108.288 79.464 112.416 79.464C117.744 79.464 120.288 83.448 119.04 89.64L116.112 104.424H105.648L108.192 91.56C108.72 88.968 107.808 87.576 105.696 87.576C103.536 87.576 102 89.016 101.472 91.704L98.928 104.424H88.896L91.44 91.56C91.968 88.92 91.2 87.576 89.088 87.576C86.88 87.576 85.296 89.064 84.72 91.704L82.224 104.424H71.76Z" fill="white"/>
<path d="M136.139 105.096C126.731 105.096 121.115 99.192 122.747 91.128C124.187 83.976 130.763 79.32 139.307 79.32C148.667 79.32 154.283 85.176 152.699 93.24C151.259 100.392 144.683 105.096 136.139 105.096ZM136.715 96.984C139.595 96.984 141.995 94.968 142.571 92.184C143.147 89.352 141.563 87.384 138.683 87.384C135.803 87.384 133.403 89.4 132.827 92.184C132.299 95.016 133.883 96.984 136.715 96.984Z" fill="white"/>
<path d="M154.822 104.424L159.671 79.944H168.934C168.406 82.104 167.543 83.832 164.999 87.624L167.447 89.064C171.479 81.768 174.55 79.368 179.926 79.944L177.958 89.592C171.094 89.064 167.879 91.176 166.775 96.792L165.286 104.424H154.822Z" fill="white"/>
<path d="M186.705 105.048C180.993 105.048 177.681 101.736 178.641 96.84C179.361 92.952 182.481 90.744 187.809 90.312L195.249 89.64C197.265 89.496 198.273 88.872 198.465 87.768C198.705 86.52 197.745 85.8 195.777 85.8C193.713 85.8 192.177 86.664 191.409 88.248H181.377C183.489 82.44 188.769 79.32 196.353 79.32C205.089 79.32 209.313 83.4 207.921 90.36L207.057 94.584C206.673 96.36 207.153 96.936 209.697 96.744L208.161 104.424C201.201 105.336 198.801 103.416 201.297 98.904L198.897 97.848C196.209 102.504 191.793 105.048 186.705 105.048ZM190.977 98.664C194.433 98.664 197.265 96.6 199.233 92.616L196.881 91.464C195.777 93.288 194.721 93.96 192.945 94.296L191.265 94.584C189.537 94.872 188.673 95.496 188.481 96.6C188.193 97.992 189.057 98.664 190.977 98.664Z" fill="white"/>
<path d="M232.308 104.424C233.22 102.12 234.228 100.632 235.956 98.856L233.748 97.176C230.052 102.552 226.5 104.904 222.228 104.904C215.796 104.904 212.148 99.192 213.684 91.32C215.124 84.168 220.164 79.464 226.26 79.464C230.58 79.464 233.556 81.912 235.428 87.048L237.924 86.136C235.956 81 235.812 78.84 237.588 70.824H248.1L241.38 104.424H232.308ZM227.556 96.984C230.484 96.984 232.932 94.968 233.508 92.088C234.084 89.304 232.548 87.384 229.716 87.384C226.788 87.384 224.34 89.4 223.764 92.28C223.188 95.064 224.676 96.984 227.556 96.984Z" fill="white"/>
<path d="M261.764 105.096C252.356 105.096 246.74 99.192 248.372 91.128C249.812 83.976 256.388 79.32 264.932 79.32C274.292 79.32 279.908 85.176 278.324 93.24C276.884 100.392 270.308 105.096 261.764 105.096ZM262.34 96.984C265.22 96.984 267.62 94.968 268.196 92.184C268.772 89.352 267.188 87.384 264.308 87.384C261.428 87.384 259.028 89.4 258.452 92.184C257.924 95.016 259.508 96.984 262.34 96.984Z" fill="white"/>
<path d="M292.494 105.096C283.902 105.096 280.158 101.736 281.022 96.36H290.574C290.238 97.896 291.006 98.808 292.83 98.808C294.462 98.808 295.422 98.136 295.614 97.176C296.382 93.048 281.262 96.168 283.182 86.664C284.238 81.432 289.086 79.32 295.758 79.32C303.966 79.32 307.374 82.488 306.702 87.912H297.438C297.726 86.376 296.958 85.56 295.23 85.56C293.694 85.56 292.83 86.136 292.686 87.048C291.87 91.08 307.422 88.92 305.598 97.944C304.638 102.6 300.03 105.096 292.494 105.096Z" fill="white"/>
</svg>
